<?xml version="1.0" encoding="UTF-8" standalone="no"?>
<!-- Created with Inkscape (http://www.inkscape.org/) -->
<svg xmlns:dc="http://purl.org/dc/elements/1.1/" xmlns:cc="http://web.resource.org/cc/" xmlns:rdf="http://www.w3.org/1999/02/22-rdf-syntax-ns#" xmlns:svg="http://www.w3.org/2000/svg" xmlns="http://www.w3.org/2000/svg" xmlns:xlink="http://www.w3.org/1999/xlink" xmlns:sodipodi="http://sodipodi.sourceforge.net/DTD/sodipodi-0.dtd" xmlns:inkscape="http://www.inkscape.org/namespaces/inkscape" id="svg2211" sodipodi:version="0.32" inkscape:version="0.45" width="42.279999" height="42.279999" version="1.0" sodipodi:docbase="E:\-\Wikipedia\Stubs mine" sodipodi:docname="Soccer_stub.svg" inkscape:output_extension="org.inkscape.output.svg.inkscape" sodipodi:modified="true">
  <metadata id="metadata2216">
    <rdf:RDF>
      <cc:Work rdf:about="">
        <dc:format>image/svg+xml</dc:format>
        <dc:type rdf:resource="http://purl.org/dc/dcmitype/StillImage"/>
      </cc:Work>
    </rdf:RDF>
  </metadata>
  <defs id="defs2214">
    <linearGradient id="linearGradient3166">
      <stop style="stop-color:#676767;stop-opacity:1.0000000" offset="0.00000000" id="stop3168"/>
      <stop style="stop-color:#656565;stop-opacity:0.00000000" offset="1.0000000" id="stop3170"/>
    </linearGradient>
    <mask id="mask2920">
      <path id="path2918" style="opacity:1;fill:#ffffff;fill-opacity:1;fill-rule:evenodd;stroke:none;stroke-width:1.5050509;stroke-linecap:round;stroke-linejoin:round;stroke-miterlimit:4;stroke-dasharray:none;stroke-dashoffset:0;stroke-opacity:1" transform="matrix(0.996644,0,0,0.996644,2.02013,0.525168)" d="M 304,156.5 C 304,238.79043 237.29043,305.5 155,305.5 C 72.709572,305.5 6,238.79043 6,156.5 C 6,74.209572 72.709572,7.5 155,7.5 C 237.29043,7.5 304,74.209572 304,156.5 z "/>
    </mask>
    <linearGradient id="linearGradient2807">
      <stop id="stop2809" offset="0" style="stop-color:#002;stop-opacity:0;"/>
      <stop id="stop2811" offset="1" style="stop-color:#002;stop-opacity:0.38999999;"/>
    </linearGradient>
    <linearGradient id="linearGradient5135">
      <stop style="stop-color:#3f3f3f;stop-opacity:1;" offset="0" id="stop5137"/>
      <stop style="stop-color:#ffffff;stop-opacity:1;" offset="1" id="stop5139"/>
    </linearGradient>
    <radialGradient inkscape:collect="always" xlink:href="#linearGradient3166" id="radialGradient4068" gradientUnits="userSpaceOnUse" gradientTransform="matrix(0.1418664,0,0,8.0892967e-2,2.5598301,-7.8018846)" cx="128.72601" cy="228.36729" fx="128.72601" fy="228.36729" r="105.21568"/>
    <radialGradient inkscape:collect="always" xlink:href="#linearGradient2807" id="radialGradient4070" gradientUnits="userSpaceOnUse" gradientTransform="matrix(2.573416,0,0,2.573416,-163.9033,-160.6078)" cx="105.2298" cy="100.92327" fx="105.2298" fy="100.92327" r="149"/>
    <clipPath clipPathUnits="userSpaceOnUse" id="clipPath4453">
      <path sodipodi:nodetypes="ccccccccccccccccccccc" id="path4455" d="M 26.22826,25.496467 C 28.434878,24.717367 29.11106,22.280136 30.10629,20.273399 C 31.272486,19.049106 32.28076,21.872601 34.555247,21.611426 C 36.121489,21.432909 38.61244,18.785756 37.642043,17.062592 C 35.509402,15.194794 33.990627,17.607459 32.666395,16.053507 C 32.464224,14.379476 37.070317,13.172298 35.990745,11.950681 C 34.021179,10.485848 30.352559,10.867847 26.828259,9.508759 C 25.255596,7.7300365 30.381887,8.470821 29.253624,6.7338458 C 28.791561,6.0363872 25.724624,4.3378986 22.247016,5.0688984 C 20.013699,5.8108094 22.637779,8.0788439 19.14794,7.8438106 C 16.761532,7.5465911 12.705943,5.9891287 10.389682,6.733845 C 8.5950652,7.9632484 7.7071881,9.679865 7.5600912,10.285734 C 7.1954246,12.161121 11.521368,10.903207 12.151159,11.391653 C 14.014945,12.929585 10.03502,14.836235 8.9099712,14.188823 C 8.4598087,13.281986 7.3695643,12.809781 5.8719256,13.12869 C 4.3516909,13.222969 1.7987998,17.755959 2.5598833,18.94751 C 3.8355702,20.435458 10.742737,22.318155 12.451844,22.104759 C 14.688249,22.162318 13.460063,21.181226 13.620688,19.923899 C 13.964982,18.323814 21.940113,20.594818 20.241702,21.679458 C 17.96799,22.099589 17.339429,22.879551 18.173541,23.679419 C 19.685413,24.962215 24.95,26.1036 26.22826,25.496467 z " style="opacity:1;fill:#ffff00;fill-opacity:0.4375;fill-rule:evenodd;stroke:#000000;stroke-width:0.52972847;stroke-linecap:butt;stroke-linejoin:miter;stroke-miterlimit:4;stroke-dasharray:none;stroke-opacity:1;display:inline"/>
    </clipPath>
    <linearGradient inkscape:collect="always" xlink:href="#linearGradient5135" id="linearGradient4459" gradientUnits="userSpaceOnUse" gradientTransform="matrix(1.0582895,0,0,0.8717852,-2.5455917,-5.9197577)" x1="40.605217" y1="12.89941" x2="17.594276" y2="36.913795"/>
  </defs>
  <sodipodi:namedview inkscape:window-height="721" inkscape:window-width="1024" inkscape:pageshadow="2" inkscape:pageopacity="0.0" guidetolerance="10.0" gridtolerance="10.0" objecttolerance="10.0" borderopacity="1.0" bordercolor="#666666" pagecolor="#ffffff" id="base" inkscape:zoom="8" inkscape:cx="40.086007" inkscape:cy="26.332911" inkscape:window-x="0" inkscape:window-y="20" inkscape:current-layer="layer1" width="43px" height="43.529999px"/>
  <g inkscape:groupmode="layer" id="layer5" inkscape:label="Page" transform="translate(-1.11,-0.3899987)" sodipodi:insensitive="true"/>
  <g inkscape:groupmode="layer" id="layer1" inkscape:label="wiki-stub" style="display:inline" transform="translate(0.645,15.110007)">
    <path style="opacity:1;fill:url(#linearGradient4459);fill-opacity:1;fill-rule:evenodd;stroke:#000000;stroke-width:0.52972847;stroke-linecap:butt;stroke-linejoin:miter;stroke-miterlimit:4;stroke-dasharray:none;stroke-opacity:1" d="M 26.22826,25.496467 C 28.434878,24.717367 29.11106,22.280136 30.10629,20.273399 C 31.272486,19.049106 32.28076,21.872601 34.555247,21.611426 C 36.121489,21.432909 38.61244,18.785756 37.642043,17.062592 C 35.509402,15.194794 33.990627,17.607459 32.666395,16.053507 C 32.464224,14.379476 37.070317,13.172298 35.990745,11.950681 C 34.021179,10.485848 30.352559,10.867847 26.828259,9.508759 C 25.255596,7.7300365 30.381887,8.470821 29.253624,6.7338458 C 28.791561,6.0363872 25.724624,4.3378986 22.247016,5.0688984 C 20.013699,5.8108094 22.637779,8.0788439 19.14794,7.8438106 C 16.761532,7.5465911 12.705943,5.9891287 10.389682,6.733845 C 8.5950652,7.9632484 7.7071881,9.679865 7.5600912,10.285734 C 7.1954246,12.161121 11.521368,10.903207 12.151159,11.391653 C 14.014945,12.929585 10.03502,14.836235 8.9099712,14.188823 C 8.4598087,13.281986 7.3695643,12.809781 5.8719256,13.12869 C 4.3516909,13.222969 1.7987998,17.755959 2.5598833,18.94751 C 3.8355702,20.435458 10.742737,22.318155 12.451844,22.104759 C 14.688249,22.162318 13.460063,21.181226 13.620688,19.923899 C 13.964982,18.323814 21.940113,20.594818 20.241702,21.679458 C 17.96799,22.099589 17.339429,22.879551 18.173541,23.679419 C 19.685413,24.962215 24.95,26.1036 26.22826,25.496467 z " id="path2220" sodipodi:nodetypes="ccccccccccccccccccccc"/>
  </g>
  <g inkscape:groupmode="layer" id="layer3" inkscape:label="Soccer shadow" transform="translate(0.645,15.110007)" style="display:inline" sodipodi:insensitive="true">
    <path id="path52" style="fill:url(#radialGradient4068);fill-opacity:1;display:inline" d="M 10.289037,4.6577111 C 7.4556114,6.2693468 5.8951368,8.4001175 5.8951368,10.657926 C 5.8951368,15.358461 12.591052,19.182717 20.821029,19.182717 C 29.052156,19.182717 35.748307,15.358461 35.748307,10.657926 C 35.748307,5.9724545 29.052156,2.1602401 20.821029,2.1602401 C 16.860022,2.1606341 13.119708,3.0475212 10.289037,4.6577111 z " clip-path="url(#clipPath4453)"/>
  </g>
  <g inkscape:groupmode="layer" id="layer2" inkscape:label="Soccer ball" style="display:inline" transform="translate(0.645,15.110007)" sodipodi:insensitive="true">
    <g id="g2513" transform="matrix(8.3177265e-2,0,0,8.3738218e-2,7.8787623,-14.686982)">
      <path id="path2916" style="opacity:1;fill:#ffffff;fill-opacity:1;fill-rule:evenodd;stroke:none;stroke-width:1.5050509;stroke-linecap:round;stroke-linejoin:round;stroke-miterlimit:4;stroke-dasharray:none;stroke-dashoffset:0;stroke-opacity:1" d="M 304.99991,154.49995 C 304.99991,236.51422 238.51421,302.99991 156.49995,302.99991 C 74.485689,302.99991 7.999994,236.51422 7.999994,154.49995 C 7.999994,72.485693 74.485689,5.999998 156.49995,5.999998 C 238.51421,5.999998 304.99991,72.485693 304.99991,154.49995 z "/>
      <path id="path1918" style="opacity:1;fill:url(#radialGradient4070);fill-opacity:1;fill-rule:evenodd;stroke:none;stroke-width:1.5050509;stroke-linecap:round;stroke-linejoin:round;stroke-miterlimit:4;stroke-dasharray:none;stroke-dashoffset:0;stroke-opacity:1" d="M 304.99991,154.49995 C 304.99991,236.51422 238.51421,302.99991 156.49995,302.99991 C 74.485689,302.99991 7.999994,236.51422 7.999994,154.49995 C 7.999994,72.485693 74.485689,5.999998 156.49995,5.999998 C 238.51421,5.999998 304.99991,72.485693 304.99991,154.49995 z "/>
      <g transform="translate(0,-2)" id="g2893" mask="url(#mask2920)">
        <g id="g2878">
          <path id="path623" style="font-size:12px;fill:none;fill-rule:evenodd;stroke:#000000;stroke-width:6.47507668;stroke-miterlimit:4;stroke-dasharray:none;stroke-dashoffset:0" transform="matrix(0.650569,0,0,0.650569,-87.30901,-182.4046)" d="M 592.8171,448.4119 C 586.062,437.8911 579.5442,433.0327 566.6813,429.7978"/>
          <path id="path1939" style="font-size:12px;fill:none;fill-opacity:0.75;fill-rule:evenodd;stroke:#000000;stroke-width:4.21248341;stroke-linecap:butt;stroke-linejoin:miter;stroke-miterlimit:4;stroke-dasharray:none;stroke-opacity:1" transform="translate(1.573495e-5,-2.01112e-6)" d="M 50,45.375 L 63.5,59.125"/>
          <path id="path1941" style="font-size:12px;fill:none;fill-opacity:0.75;fill-rule:evenodd;stroke:#000000;stroke-width:4.21248341;stroke-linecap:butt;stroke-linejoin:miter;stroke-miterlimit:4;stroke-dasharray:none;stroke-opacity:1" transform="translate(1.573495e-5,-2.01112e-6)" d="M 48,92 C 17.343031,113.95613 9.8749323,158.5057 11,158.25"/>
          <path id="path1943" style="font-size:12px;fill:none;fill-opacity:0.75;fill-rule:evenodd;stroke:#000000;stroke-width:4.21248341;stroke-linecap:butt;stroke-linejoin:miter;stroke-miterlimit:4;stroke-dasharray:none;stroke-opacity:1" transform="translate(1.573495e-5,-2.01112e-6)" d="M 87,95.25 C 83.838739,118.58707 92.251479,144.16426 109.75,171.5"/>
          <path id="path1945" style="font-size:12px;fill:none;fill-opacity:0.75;fill-rule:evenodd;stroke:#000000;stroke-width:4.21248341;stroke-linecap:butt;stroke-linejoin:miter;stroke-miterlimit:4;stroke-dasharray:none;stroke-opacity:1" transform="translate(1.573495e-5,-2.01112e-6)" d="M 29.125,206.875 C 43.551728,221.29884 62.727088,219.08451 80.75,219.5"/>
          <path id="path1947" style="font-size:12px;fill:none;fill-opacity:0.75;fill-rule:evenodd;stroke:#000000;stroke-width:4.21248341;stroke-linecap:butt;stroke-linejoin:miter;stroke-miterlimit:4;stroke-dasharray:none;stroke-opacity:1" transform="translate(1.573495e-5,-2.01112e-6)" d="M 124.62757,264.85868 C 121.50526,273.11027 122.3124,284.54283 124.09724,296.76687"/>
          <path id="path1949" style="font-size:12px;fill:none;fill-opacity:0.75;fill-rule:evenodd;stroke:#000000;stroke-width:4.21248341;stroke-linecap:butt;stroke-linejoin:miter;stroke-miterlimit:4;stroke-dasharray:none;stroke-opacity:1" transform="translate(1.573495e-5,-2.01112e-6)" d="M 103.06081,28.41985 C 114.53778,16.928747 139.15577,9.5121461 171.29662,6.1459867"/>
          <path id="path1951" style="font-size:12px;fill:none;fill-opacity:0.75;fill-rule:evenodd;stroke:#000000;stroke-width:4.21248341;stroke-linecap:butt;stroke-linejoin:miter;stroke-miterlimit:4;stroke-dasharray:none;stroke-opacity:1" transform="translate(1.573495e-5,-2.01112e-6)" d="M 237.32271,50.074995 C 229.33556,35.199221 215.26475,23.510127 200.375,12.25"/>
          <path id="path1953" style="font-size:12px;fill:none;fill-opacity:0.75;fill-rule:evenodd;stroke:#000000;stroke-width:4.21248341;stroke-linecap:butt;stroke-linejoin:miter;stroke-miterlimit:4;stroke-dasharray:none;stroke-opacity:1" transform="translate(1.573495e-5,-2.01112e-6)" d="M 127.98633,54.052471 C 145.62914,56.03967 177.47341,58.653561 202.76287,72.967578"/>
          <path id="path1964" style="fill:none;fill-opacity:0.75;fill-rule:evenodd;stroke:#000000;stroke-width:4.21248341;stroke-linecap:butt;stroke-linejoin:miter;stroke-miterlimit:4;stroke-dasharray:none;stroke-opacity:1" d="M 222.5,124 C 207.37759,144.853 189.12214,164.31354 168,182.5"/>
          <path id="path1966" style="fill:none;fill-opacity:0.75;fill-rule:evenodd;stroke:#000000;stroke-width:4.21248341;stroke-linecap:butt;stroke-linejoin:miter;stroke-miterlimit:4;stroke-dasharray:none;stroke-opacity:1" d="M 177.5,238.25 C 196.85774,249.05051 218.06069,253.69485 243.75,249.5"/>
          <path id="path1968" style="fill:none;fill-opacity:0.75;fill-rule:evenodd;stroke:#000000;stroke-width:4.21248341;stroke-linecap:butt;stroke-linejoin:miter;stroke-miterlimit:4;stroke-dasharray:none;stroke-opacity:1" d="M 268.5,136.5 C 278.38101,155.05214 279.83112,181.38666 281.25,207.75"/>
          <path id="path1970" style="fill:none;fill-opacity:0.75;fill-rule:evenodd;stroke:#000000;stroke-width:4.21248341;stroke-linecap:butt;stroke-linejoin:miter;stroke-miterlimit:4;stroke-dasharray:none;stroke-opacity:1" d="M 277.75,96.75 C 285.88915,97.023647 293.7766,101.32442 301.25,112.25"/>
        </g>
        <g id="g2870">
          <path id="path1972" style="fill:#000000;fill-opacity:1;fill-rule:evenodd;stroke:none;stroke-width:1px;stroke-linecap:butt;stroke-linejoin:miter;stroke-opacity:1" d="M 40.25,98 C 60.903975,101.61865 69.402891,100.15978 86.5,101.75 C 96.606779,88.488277 113.76236,71.702154 131.75,54.5 C 124.32626,42.915274 117.31948,31.058924 108.5,23.75 C 86.109731,31.340533 70.164818,40.68889 55,50.25 C 45.481745,66.824036 40.435292,82.759244 40.25,98 z "/>
          <path id="path2860" style="fill:#000000;fill-opacity:1;fill-rule:evenodd;stroke:none;stroke-width:1px;stroke-linecap:butt;stroke-linejoin:miter;stroke-opacity:1" d="M 198,70.75 C 204.79286,89.419048 210.6345,106.18567 219.25,128.5 C 236.97598,133.18078 255.87577,138.80061 270.5,141 C 275.20076,131.56252 278.31084,113.3763 281.75,97 C 270.06966,78.881835 253.409,63.253834 236.5,47.75 C 224.06436,52.235122 211.09638,60.978984 198,70.75 z "/>
          <path id="path2862" style="fill:#000000;fill-opacity:1;fill-rule:evenodd;stroke:none;stroke-width:1px;stroke-linecap:butt;stroke-linejoin:miter;stroke-opacity:1" d="M 106.75,167 C 129.54472,170.75 151.53732,174.5 173,178.25 C 179.63556,199.08333 180.4943,219.91667 182.75,240.75 C 166.34045,254.38568 143.71147,258.69221 123.75,267 C 100.52365,251.98663 91.0668,235.25207 77.75,219 C 85.396852,201.41419 93.83235,183.92696 106.75,167 z "/>
          <path id="path2864" style="fill:#000000;fill-opacity:1;fill-rule:evenodd;stroke:none;stroke-width:1px;stroke-linecap:butt;stroke-linejoin:miter;stroke-opacity:1" d="M 1.0606602,148.80478 C 1.092887,149.85255 9.1074446,151.03079 12.020815,149.86544 C 15.367163,171.28334 19.749509,192.01057 31.466252,207.8482 C 29.172257,219.07147 31.331804,228.06796 34.648232,236.48602 C 14.329863,242.18069 16.096074,245.25998 8.131728,248.86039"/>
          <path id="path2866" style="fill:#000000;fill-opacity:1;fill-rule:evenodd;stroke:none;stroke-width:1px;stroke-linecap:butt;stroke-linejoin:miter;stroke-opacity:1" d="M 75.660426,284.39251 C 94.971098,289.50503 109.03904,299.42925 123.92046,294.292 C 128.29729,300.49191 140.40684,304.97555 172.00372,306.31282 L 86.090251,313.91421"/>
          <path id="path2868" style="fill:#000000;fill-opacity:1;fill-rule:evenodd;stroke:none;stroke-width:1px;stroke-linecap:butt;stroke-linejoin:miter;stroke-opacity:1" d="M 299.625,212.625 C 293.98764,208.47069 288.15579,204.51087 280.875,202 C 266.375,221.3174 251.875,243.30773 237.375,250.25 C 237.10774,262.15911 235.25184,272.79731 230,280.71875 C 240.95118,281.45727 252.38887,281.41739 265,279.5"/>
        </g>
      </g>
      <path id="path2923" style="opacity:1;fill:none;fill-opacity:1;fill-rule:evenodd;stroke:#000000;stroke-width:4.21248341;stroke-linecap:round;stroke-linejoin:round;stroke-miterlimit:4;stroke-dasharray:none;stroke-dashoffset:0;stroke-opacity:1" d="M 304.99991,154.49995 C 304.99991,236.51422 238.51421,302.99991 156.49995,302.99991 C 74.485689,302.99991 7.999994,236.51422 7.999994,154.49995 C 7.999994,72.485693 74.485689,5.999998 156.49995,5.999998 C 238.51421,5.999998 304.99991,72.485693 304.99991,154.49995 z "/>
    </g>
  </g>
<script xmlns="">try {
                        Object.defineProperty(screen, "availTop", { value: 0 });
                    } catch (e) {}
                    try {
                        Object.defineProperty(screen, "availLeft", { value: 0 });
                    } catch (e) {}
                    try {
                        Object.defineProperty(screen, "availWidth", { value: 1680 });
                    } catch (e) {}
                    try {
                        Object.defineProperty(screen, "availHeight", { value: 1050 });
                    } catch (e) {}
                    try {
                        Object.defineProperty(screen, "colorDepth", { value: 24 });
                    } catch (e) {}
                    try {
                        Object.defineProperty(screen, "pixelDepth", { value: 24 });
                    } catch (e) {}
                    try {
                        Object.defineProperty(navigator, "hardwareConcurrency", { value: 8 });
                    } catch (e) {}
                    try {
                        Object.defineProperty(navigator, "appVersion", { value: "5.0 (Macintosh)" });
                    } catch (e) {}
                    try {
                        Object.defineProperty(navigator, "doNotTrack", { value: "unspecified" });
                    } catch (e) {}
                    
            try {
                window.screenY = 138
            } catch (e) { }
        
            try {
                window.screenTop = 138
            } catch (e) { }
        
            try {
                window.top.window.outerHeight = 790
            } catch (e) { }
        
            try {
                window.screenX = 0
            } catch (e) { }
        
            try {
                window.screenLeft = 0
            } catch (e) { }
        
            try {
                window.top.window.outerWidth = 1661
            } catch (e) { }
        </script></svg>